<svg xmlns="http://www.w3.org/2000/svg" xmlns:xlink="http://www.w3.org/1999/xlink" width="16" height="16" viewBox="0 0 16 16">
  <defs>
    <clipPath id="clip-cross">
      <rect width="16" height="16"/>
    </clipPath>
  </defs>
  <g id="cross" clip-path="url(#clip-cross)">
    <path id="Union_56" data-name="Union 56" d="M-5343.553-1040.912l-5.145-5.146-4.919,4.92a1,1,0,0,1-1.414,0,1,1,0,0,1,0-1.414l4.919-4.92-5.18-5.181a1,1,0,0,1,0-1.415,1,1,0,0,1,1.414,0l5.18,5.181,5.406-5.406a1,1,0,0,1,1.414,0,1,1,0,0,1,0,1.414l-5.406,5.407,5.145,5.146a1,1,0,0,1,0,1.414,1,1,0,0,1-.708.293A.994.994,0,0,1-5343.553-1040.912Z" transform="translate(5356.586 1055.586)"/>
  </g>
</svg>
