<svg xmlns="http://www.w3.org/2000/svg" xmlns:xlink="http://www.w3.org/1999/xlink" width="24" height="24" viewBox="0 0 24 24">
  <defs>
    <clipPath id="clip-show">
      <rect width="24" height="24"/>
    </clipPath>
  </defs>
  <g id="show" clip-path="url(#clip-show)">
    <g id="Group_4288" data-name="Group 4288" transform="translate(3 6)">
      <path id="Path_2158" data-name="Path 2158" d="M1599.264,2649.882s4.365,3.161,8.722,3.161,8.708-3.161,8.708-3.161" transform="translate(-1598.548 -2641.093)" fill="none" stroke="#000" stroke-linecap="round" stroke-linejoin="round" stroke-width="2"/>
      <g id="Group_3741" data-name="Group 3741" transform="translate(18.147 7.942) rotate(180)">
        <path id="Path_2152" data-name="Path 2152" d="M0,0S4.365,4.083,8.722,4.083,17.43,0,17.43,0" fill="none" stroke="#000" stroke-linecap="round" stroke-linejoin="round" stroke-width="2"/>
        <path id="Path_2153" data-name="Path 2153" d="M3.416,0,0,2.374" transform="translate(0 2.675)" fill="none" stroke="#000" stroke-linecap="round" stroke-width="2"/>
        <path id="Path_2154" data-name="Path 2154" d="M.752,0,0,3.859" transform="translate(5.735 4.083)" fill="none" stroke="#000" stroke-linecap="round" stroke-width="2"/>
        <path id="Path_2155" data-name="Path 2155" d="M.752,0,0,3.859" transform="matrix(0.839, -0.545, 0.545, 0.839, 10.32, 4.493)" fill="none" stroke="#000" stroke-linecap="round" stroke-width="2"/>
        <path id="Path_2156" data-name="Path 2156" d="M.752,0,0,3.859" transform="matrix(0.545, -0.839, 0.839, 0.545, 14.5, 2.986)" fill="none" stroke="#000" stroke-linecap="round" stroke-width="2"/>
      </g>
      <g id="Ellipse_593" data-name="Ellipse 593" transform="translate(5.867 4.103)" fill="#fff" stroke="#000" stroke-width="2">
        <circle cx="3.5" cy="3.5" r="3.5" stroke="none"/>
        <circle cx="3.5" cy="3.5" r="2.5" fill="none"/>
      </g>
    </g>
  </g>
</svg>
